<?xml version="1.0" ?><svg data-name="Layer 2" id="Layer_2" viewBox="0 0 512 512" xmlns="http://www.w3.org/2000/svg"><defs>
    <style>.cls-1{fill:none;}</style></defs><title/><path d="M447.98,494.5361a10.7942,10.7942,0,0,1-6.7622-2.3935L398.8135,458.22a51.0422,51.0422,0,0,0-31.77-11.1445H132.5713A24.5989,24.5989,0,0,1,108,422.5039V203.0752a24.5989,24.5989,0,0,1,24.5713-24.5713H475.4287A24.5989,24.5989,0,0,1,500,203.0752V422.5039a24.5989,24.5989,0,0,1-24.5713,24.5713,16.59,16.59,0,0,0-16.5718,16.5713V483.665A10.8956,10.8956,0,0,1,447.98,494.5361ZM132.5713,186.5039A16.59,16.59,0,0,0,116,203.0752V422.5039a16.59,16.59,0,0,0,16.5713,16.5713H367.043a59.0691,59.0691,0,0,1,36.768,12.8984l42.4038,33.9229a2.8574,2.8574,0,0,0,4.6421-2.2315V463.6465a24.5994,24.5994,0,0,1,24.5718-24.5713A16.59,16.59,0,0,0,492,422.5039V203.0752a16.59,16.59,0,0,0-16.5713-16.5713Z"/><path class="cls-1" d="M16,60.6075V307.4646a23.1428,23.1428,0,0,0,23.1428,23.1429h0A23.1428,23.1428,0,0,1,62.2857,353.75v22.5209a7.7143,7.7143,0,0,0,12.5334,6.0239l47.7051-38.1641a61.714,61.714,0,0,1,38.5526-13.5235h263.78A23.1428,23.1428,0,0,0,448,307.4646V60.6075a23.1428,23.1428,0,0,0-23.1428-23.1429H39.1428A23.1428,23.1428,0,0,0,16,60.6075Z"/><path d="M70.0215,388.001a11.7494,11.7494,0,0,1-5.0957-1.1719,11.6237,11.6237,0,0,1-6.64-10.5576V353.75a19.164,19.164,0,0,0-19.1425-19.1426A27.1734,27.1734,0,0,1,12,307.4648V60.6074A27.1737,27.1737,0,0,1,39.1431,33.4648H424.8569A27.1737,27.1737,0,0,1,452,60.6074V307.4648a27.1734,27.1734,0,0,1-27.1431,27.1426h-263.78a57.9269,57.9269,0,0,0-36.0542,12.6465L77.3174,385.418A11.6525,11.6525,0,0,1,70.0215,388.001ZM39.1431,41.4648A19.1645,19.1645,0,0,0,20,60.6074V307.4648a19.1641,19.1641,0,0,0,19.1431,19.1426A27.1732,27.1732,0,0,1,66.2856,353.75v22.5215a3.7142,3.7142,0,0,0,6.0342,2.9l47.7051-38.1641a65.9549,65.9549,0,0,1,41.0518-14.4h263.78A19.1641,19.1641,0,0,0,444,307.4648V60.6074a19.1645,19.1645,0,0,0-19.1431-19.1426Z"/><path d="M348.6284,156.4238H117.0522a25.0525,25.0525,0,0,1,0-50.105H348.6284a25.0525,25.0525,0,1,1,0,50.105Zm-231.5762-42.105a17.0525,17.0525,0,0,0,0,34.105H348.6284a17.0525,17.0525,0,1,0,0-34.105Z"/><path d="M306.5239,240.6333H117.0522a25.0523,25.0523,0,0,1,0-50.1045H306.5239a25.0523,25.0523,0,1,1,0,50.1045ZM117.0522,198.5288a17.0523,17.0523,0,0,0,0,34.1045H306.5239a17.0523,17.0523,0,1,0,0-34.1045Z"/><path class="cls-1" d="M480,285.0909V386.9091A29.0915,29.0915,0,0,1,450.9091,416H349.0909A29.0915,29.0915,0,0,1,320,386.9091V285.0909A29.0887,29.0887,0,0,1,349.0909,256H450.9091A29.0887,29.0887,0,0,1,480,285.0909Z"/><path d="M450.9092,264A21.1147,21.1147,0,0,1,472,285.0909V386.9091A21.0913,21.0913,0,0,1,450.9092,408H349.0908A21.0914,21.0914,0,0,1,328,386.9091V285.0909A21.1147,21.1147,0,0,1,349.0908,264H450.9092m0-8H349.0908A29.0887,29.0887,0,0,0,320,285.0909V386.9091A29.0913,29.0913,0,0,0,349.0908,416H450.9092A29.0913,29.0913,0,0,0,480,386.9091V285.0909A29.0887,29.0887,0,0,0,450.9092,256Z"/><path d="M400,340a33.0908,33.0908,0,1,1,33.0908-33.0908A33.1283,33.1283,0,0,1,400,340Zm0-58.1816a25.0908,25.0908,0,1,0,25.0908,25.0908A25.1194,25.1194,0,0,0,400,281.8184Z"/><path d="M400,351.2727a64.8165,64.8165,0,0,1,63.5745,52.5122A20.8568,20.8568,0,0,1,450.9092,408H349.0908a20.8568,20.8568,0,0,1-12.6653-4.2151A64.8165,64.8165,0,0,1,400,351.2727m0-8a72.7316,72.7316,0,0,0-72.1455,63.5182A29.0028,29.0028,0,0,0,349.0908,416H450.9092a29.0028,29.0028,0,0,0,21.2363-9.2091A72.7316,72.7316,0,0,0,400,343.2727Z"/></svg>